<svg xmlns="http://www.w3.org/2000/svg" xmlns:xlink="http://www.w3.org/1999/xlink" id="Laag_1" x="0px" y="0px" viewBox="0 0 282 246" style="enable-background:new 0 0 282 246;" xml:space="preserve">
<style type="text/css">
	.st0{fill:#2F788A;}
	.st1{fill:#FF9859;}
	.st2{fill:#3DB1C4;}
	.st3{fill:#FFFFFF;}
	.st4{fill:#69D6E7;}
	.st5{fill:#EFA059;}
	.st6{fill:#F08419;}
</style>
<g>
	<g>
		<path class="st4" d="M167.85,202.67l-3.45,25.86c-0.17,1.28,0.83,2.43,2.12,2.43h2.88c1.18-0.12,2.06-1.21,1.9-2.42L167.85,202.67    z"></path>
		<path class="st2" d="M233.73,124.53l0.02-0.03l-9.29-9.29c-6.64-6.63-15.63-10.36-25.01-10.36h-9.51c-8.07,0-15.86,2.76-22.1,7.77    c1.02,0.79,2,1.67,2.93,2.6l9.29,9.29l-0.02,0.03c6.68,6.68,6.68,17.52,0,24.21l-12.18,11.11l5.08,4.64l-5.09,38.17l3.45,25.87    c0.16,1.21-0.72,2.3-1.9,2.42h10.17c1.07,0,1.97-0.79,2.12-1.85l7.07-51.31c0.12-0.87,0.41-1.68,0.83-2.4    c2.23-3.8,7.98-3.8,10.2,0c0.42,0.72,0.71,1.53,0.84,2.4l7.07,51.31c0.15,1.06,1.05,1.85,2.12,1.85h13.05    c1.29,0,2.29-1.15,2.12-2.43l-8.54-64.03l17.28-15.76C240.4,142.05,240.4,131.21,233.73,124.53z M218.99,139.25l-5.46,5.47    l-2.35-17.21c-0.07-0.51,0.54-0.81,0.9-0.45l6.91,6.91C220.46,135.43,220.46,137.79,218.99,139.25z"></path>
		<path class="st2" d="M194.69,98.79L194.69,98.79c9.1,0,16.48-7.38,16.48-16.48l0,0c0-9.1-7.38-16.48-16.48-16.48l0,0    c-9.1,0-16.48,7.38-16.48,16.48l0,0C178.21,91.41,185.59,98.79,194.69,98.79z"></path>
		<path class="st0" d="M184.08,152.63l-0.09,0.09l-0.09,0.09l-11.82,10.77l-4.07-3.72l12.18-11.11c6.68-6.7,6.68-17.53,0-24.22    l0.02-0.02l-9.29-9.29c-0.93-0.93-1.91-1.81-2.93-2.6c1.5-1.22,3.09-2.29,4.76-3.21c0.71,0.61,1.39,1.25,2.06,1.92l9.29,9.29    l2.91,3.62C192.75,133.01,191.78,144.93,184.08,152.63z"></path>
		<path class="st0" d="M176.49,230.96h-7.1c1.18-0.12,2.06-1.22,1.9-2.43l-3.45-25.86l2.77-20.8l6.13,45.94    C176.88,228.88,176.8,229.95,176.49,230.96z"></path>
		<path class="st0" d="M165.31,139.26l-5.46,5.47l-2.35-17.21c-0.07-0.51,0.54-0.81,0.9-0.45l6.91,6.91    C166.77,135.44,166.77,137.8,165.31,139.26z"></path>
	</g>
	<g>
		<path class="st4" d="M114.15,202.67l-3.45,25.87c-0.16,1.21,0.72,2.3,1.9,2.42h2.88c1.29,0,2.29-1.15,2.12-2.43L114.15,202.67z"></path>
		<path class="st2" d="M114.15,202.67l-5.09-38.17l5.08-4.64l-12.18-11.11c-6.68-6.69-6.68-17.53,0-24.21l-0.02-0.03l9.29-9.29    c0.93-0.93,1.91-1.81,2.93-2.61c-6.24-5-14.03-7.76-22.1-7.76h-9.51c-9.38,0-18.38,3.73-25.01,10.36l-9.29,9.29l0.02,0.03    c-6.68,6.68-6.68,17.52,0,24.21l17.28,15.76l-8.54,64.03c-0.17,1.28,0.83,2.43,2.12,2.43h13.05c1.07,0,1.97-0.79,2.12-1.85    l7.07-51.31c0.12-0.87,0.41-1.68,0.83-2.4c2.23-3.8,7.98-3.8,10.2,0c0.43,0.72,0.72,1.53,0.84,2.4l7.07,51.31    c0.15,1.06,1.05,1.85,2.12,1.85h10.17c-1.18-0.12-2.06-1.21-1.9-2.42L114.15,202.67z M68.47,144.72l-5.46-5.47    c-1.46-1.46-1.46-3.82,0-5.28l6.91-6.91c0.36-0.36,0.97-0.06,0.9,0.45L68.47,144.72z"></path>
		<path class="st2" d="M87.31,98.79L87.31,98.79c-9.1,0-16.48-7.38-16.48-16.48l0,0c0-9.1,7.38-16.48,16.48-16.48l0,0    c9.1,0,16.48,7.38,16.48,16.48l0,0C103.79,91.41,96.41,98.79,87.31,98.79z"></path>
		<path class="st0" d="M112.61,230.97h-7.1c-0.3-1.01-0.39-2.08-0.25-3.15l6.13-45.92l2.77,20.78l-3.45,25.86    C110.55,229.75,111.43,230.85,112.61,230.97z"></path>
		<path class="st0" d="M102.12,148.75l12.18,11.11l-4.07,3.72l-11.81-10.77l-0.1-0.09l-0.09-0.09c-7.69-7.7-8.67-19.62-2.92-28.39    l2.9-3.62l9.29-9.29c0.67-0.67,1.35-1.31,2.06-1.92c1.67,0.92,3.26,1.99,4.76,3.2c-1.02,0.8-2,1.68-2.93,2.61l-9.29,9.29    l0.02,0.02C95.44,131.22,95.44,142.05,102.12,148.75z"></path>
		<path class="st0" d="M124.51,127.52l-2.35,17.21l-5.46-5.47c-1.46-1.46-1.46-3.82,0-5.28l6.91-6.91    C123.97,126.71,124.58,127.01,124.51,127.52z"></path>
	</g>
	<g>
		<g>
			<path class="st0" d="M161.9,38.08v-3.31c0-0.53-0.37-0.99-0.89-1.11l-2.31-0.51c-0.43-0.1-0.77-0.44-0.86-0.87     c-0.37-1.72-0.99-3.35-1.83-4.84c-0.21-0.36-0.19-0.81,0.03-1.16l1.41-2.2c0.29-0.45,0.22-1.04-0.15-1.41l-2.34-2.34     c-0.38-0.38-0.96-0.44-1.41-0.15l-1.97,1.26c-0.37,0.24-0.85,0.24-1.23-0.01c-1.45-0.94-3.04-1.66-4.74-2.13     c-0.4-0.11-0.71-0.44-0.8-0.85l-0.56-2.54c-0.11-0.52-0.57-0.89-1.11-0.89h-3.31c-0.53,0-0.99,0.37-1.11,0.89l-0.5,2.3     c-0.09,0.43-0.43,0.77-0.87,0.86c-1.72,0.37-3.34,1-4.82,1.85c-0.37,0.21-0.82,0.2-1.17-0.03l-2.22-1.42     c-0.45-0.29-1.04-0.22-1.41,0.15l-2.34,2.34c-0.38,0.38-0.44,0.96-0.15,1.41l1.3,2.03c0.24,0.37,0.24,0.85,0,1.22     c-0.91,1.42-1.62,2.99-2.07,4.66c-0.11,0.4-0.44,0.71-0.85,0.8l-2.64,0.58c-0.52,0.11-0.89,0.57-0.89,1.11v3.31     c0,0.53,0.37,0.99,0.89,1.11l2.42,0.53c0.43,0.09,0.77,0.43,0.86,0.86c0.37,1.67,0.98,3.25,1.8,4.7     c0.21,0.36,0.19,0.81-0.03,1.17l-1.49,2.32c-0.29,0.45-0.22,1.04,0.15,1.41l2.34,2.34c0.38,0.38,0.96,0.44,1.41,0.15l2.11-1.35     c0.37-0.24,0.85-0.24,1.22,0c1.4,0.9,2.94,1.59,4.57,2.06c0.4,0.11,0.71,0.44,0.8,0.84l0.59,2.71c0.11,0.52,0.57,0.89,1.11,0.89     h3.31c0.53,0,0.99-0.37,1.11-0.89l0.53-2.43c0.09-0.43,0.43-0.77,0.87-0.86c1.68-0.36,3.26-0.97,4.72-1.78     c0.36-0.2,0.81-0.19,1.16,0.03l2.3,1.47c0.45,0.29,1.04,0.22,1.41-0.15l2.34-2.34c0.38-0.38,0.44-0.96,0.15-1.41l-1.31-2.04     c-0.24-0.38-0.24-0.85,0.01-1.23c0.92-1.42,1.64-2.99,2.11-4.66c0.11-0.4,0.44-0.71,0.84-0.8l2.6-0.57     C161.53,39.07,161.9,38.61,161.9,38.08z"></path>

				<ellipse transform="matrix(0.2298 -0.9732 0.9732 0.2298 73.6392 164.9027)" class="st3" cx="141" cy="35.93" rx="9.81" ry="9.81"></ellipse>
		</g>
		<path class="st2" d="M87.51,56.71c-0.12,0-0.25-0.01-0.38-0.03c-1.5-0.21-2.56-1.59-2.35-3.1c1.6-11.63,11.67-20.4,23.43-20.4    c1.52,0,2.75,1.23,2.75,2.75c0,1.52-1.23,2.75-2.75,2.75c-9.02,0-16.75,6.73-17.98,15.65C90.04,55.71,88.86,56.71,87.51,56.71z"></path>
		<path class="st2" d="M193.33,56.75c-1.35,0-2.54-1-2.72-2.38c-1.21-8.95-8.94-15.69-17.99-15.69c-1.52,0-2.75-1.23-2.75-2.75    c0-1.52,1.23-2.75,2.75-2.75c11.79,0,21.86,8.79,23.44,20.46c0.2,1.5-0.85,2.89-2.36,3.09C193.58,56.75,193.45,56.75,193.33,56.75    z"></path>
	</g>
	<g>
		<path class="st5" d="M180.03,148.75c6.68-6.69,6.68-17.53,0-24.21l0.02-0.03l-9.29-9.29c-0.93-0.93-1.91-1.81-2.93-2.6    c-6.24-5.01-14.02-7.76-22.08-7.76h-9.51c-8.06,0-15.84,2.75-22.08,7.75c-1.02,0.8-2,1.68-2.93,2.61l-9.29,9.29l0.02,0.03    c-6.68,6.68-6.68,17.52,0,24.21l12.18,11.11l5.1,4.65l-5.09,38.16l-3.45,25.87c-0.16,1.21,0.72,2.3,1.9,2.42    c0.07,0.01,0.15,0.01,0.22,0.01h13.05c1.07,0,1.97-0.79,2.12-1.85l7.07-51.31c0.12-0.87,0.41-1.69,0.83-2.41    c2.23-3.79,7.98-3.79,10.2,0c0.43,0.72,0.72,1.54,0.84,2.41l7.07,51.31c0.15,1.06,1.05,1.85,2.12,1.85h13.05    c0.07,0,0.15,0,0.22-0.01c1.18-0.12,2.06-1.21,1.9-2.42l-3.45-25.87l-5.09-38.16l5.1-4.65L180.03,148.75z M122.15,144.73    l-5.46-5.47c-1.46-1.46-1.46-3.82,0-5.28l6.91-6.91c0.36-0.36,0.97-0.06,0.9,0.44L122.15,144.73z M158.4,127.07l6.91,6.91    c1.46,1.46,1.46,3.82,0,5.28l-5.46,5.47l-2.35-17.22C157.43,127.01,158.03,126.71,158.4,127.07z"></path>
		<path class="st5" d="M141,98.79L141,98.79c-9.1,0-16.48-7.38-16.48-16.48l0,0c0-9.1,7.38-16.48,16.48-16.48h0    c9.1,0,16.48,7.38,16.48,16.48l0,0C157.48,91.41,150.1,98.79,141,98.79z"></path>
		<path class="st6" d="M167.63,160.04l-2.96-20.14l-4.82,4.84l2.91,19.78L167.63,160.04z"></path>
		<path class="st6" d="M119.24,164.51l2.91-19.78l-4.82-4.84l-2.96,20.16L119.24,164.51z"></path>
	</g>
</g>
</svg>
