<svg xmlns="http://www.w3.org/2000/svg" xmlns:xlink="http://www.w3.org/1999/xlink" id="Laag_1" x="0px" y="0px" viewBox="0 0 282 246" style="enable-background:new 0 0 282 246;" xml:space="preserve">
<style type="text/css">
	.st0{fill:#2F788A;}
	.st1{fill:#FF9859;}
	.st2{fill:#3DB1C4;}
	.st3{fill:#FFFFFF;}
</style>
<g>
	<g>
		<path class="st0" d="M91.88,75.58v8.28c-1.84-0.26-3.68-0.47-5.5-0.65v-7.63c0-1.52,1.23-2.75,2.75-2.75    C90.65,72.83,91.88,74.06,91.88,75.58z"></path>
		<path class="st0" d="M99.4,38.34l-8.66-8.27c-0.91-0.86-2.33-0.87-3.23,0l-8.66,8.27c-0.7,0.66-0.91,1.67-0.56,2.56    c0.36,0.89,1.21,1.47,2.17,1.47h5.92l0.03,22.42c0,1.52,1.23,2.75,2.75,2.75c0,0,0,0,0,0c1.52,0,2.75-1.23,2.75-2.75l-0.03-22.41    h5.9c0.96,0,1.81-0.58,2.17-1.47C100.31,40.01,100.09,39.01,99.4,38.34z"></path>
	</g>
	<g>
		<path class="st0" d="M195.12,75.58v7.66c-1.82,0.19-3.66,0.41-5.5,0.66v-8.32c0-1.52,1.23-2.75,2.75-2.75    C193.89,72.83,195.12,74.06,195.12,75.58z"></path>
		<path class="st0" d="M202.82,38.34L202.82,38.34l-8.66-8.27c-0.91-0.87-2.33-0.87-3.23,0l-8.66,8.27    c-0.7,0.66-0.91,1.67-0.56,2.56c0.36,0.89,1.21,1.47,2.17,1.47h5.92l0.03,22.42c0,1.52,1.23,2.75,2.75,2.75c0,0,0,0,0,0    c1.52,0,2.75-1.23,2.75-2.75l-0.03-22.41h5.9c0.96,0,1.81-0.58,2.17-1.47C203.73,40.01,203.51,39.01,202.82,38.34z"></path>
	</g>
	<path class="st1" d="M142.38,15.95l3.99,12.29c0.21,0.64,0.8,1.07,1.48,1.07h12.92c1.5,0,2.13,1.92,0.91,2.81l-10.45,7.6   c-0.54,0.4-0.77,1.1-0.56,1.73l3.99,12.29c0.46,1.43-1.17,2.62-2.39,1.73l-10.45-7.6c-0.54-0.4-1.28-0.4-1.82,0l-10.45,7.6   c-1.22,0.88-2.85-0.31-2.39-1.73l3.99-12.29c0.21-0.64-0.02-1.34-0.56-1.73l-10.45-7.6c-1.22-0.88-0.59-2.81,0.91-2.81h12.92   c0.67,0,1.27-0.43,1.48-1.07l3.99-12.29C139.9,14.52,141.92,14.52,142.38,15.95z"></path>
	<g>
		<path class="st2" d="M248.88,102.55v107.7c0,3.64-3.14,6.5-6.76,6.12c-46.12-4.87-73.92,5.7-88.41,14.45h-25.6    c-14.48-8.75-42.28-19.32-88.4-14.45c-3.62,0.38-6.77-2.48-6.77-6.12v-107.7c0-3.16,2.38-5.81,5.52-6.13    c17.33-1.77,81.84-1.26,102.45,28.59c20.62-29.85,85.12-30.36,102.46-28.59C246.51,96.74,248.88,99.39,248.88,102.55z"></path>
		<path class="st2" d="M237.85,89.51v107.7c0,3.67-3.2,6.53-6.85,6.11c-49.78-5.72-75.58,9.13-85.36,16.89    c-0.61,0.48-1.27,0.86-1.97,1.13c-1.77,0.69-3.73,0.69-5.5,0c-0.7-0.27-1.37-0.64-1.98-1.13c-9.78-7.76-35.58-22.61-85.36-16.89    c-3.65,0.42-6.85-2.44-6.85-6.11V89.51c0-3.16,2.38-5.8,5.51-6.12c7.45-0.77,21.57-1.72,36.89-0.18c1.82,0.18,3.66,0.39,5.5,0.65    c17.26,2.4,35.2,8.26,46.29,21.25c0.98,1.13,1.89,2.32,2.75,3.56c0.86-1.25,1.78-2.44,2.75-3.57    c11.02-12.9,28.79-18.77,45.95-21.2c1.84-0.25,3.68-0.47,5.5-0.66c15.45-1.58,29.71-0.62,37.22,0.15    C235.47,83.71,237.85,86.35,237.85,89.51z"></path>
		<g>
			<path class="st0" d="M237.85,96.02v101.18c0,3.44-2.8,6.15-6.14,6.15c-0.24,0-0.47-0.01-0.71-0.04     c-7.74-0.88-14.89-1.28-21.49-1.28c-35.91,0-55.6,11.61-63.86,18.17c-1.39,1.1-3.07,1.65-4.74,1.65c-1.67,0-3.35-0.55-4.73-1.65     c-8.27-6.57-27.95-18.17-63.86-18.17c-6.61,0-13.76,0.4-21.49,1.28c-0.25,0.03-0.48,0.04-0.72,0.04c-3.34,0-6.14-2.71-6.14-6.15     V96.02c-1.62,0.08-3.06,0.17-4.31,0.28v100.9c0,5.76,4.68,10.45,10.44,10.45c0.41,0,0.81-0.02,1.21-0.06     c7.24-0.83,14.3-1.26,21.01-1.26c34.35,0,53.07,10.8,61.18,17.24c2.1,1.67,4.73,2.58,7.41,2.58c2.68,0,5.31-0.92,7.41-2.58     c8.11-6.44,26.83-17.24,61.19-17.24c6.7,0,13.76,0.43,21,1.26c0.4,0.04,0.81,0.06,1.21,0.06c5.76,0,10.44-4.69,10.44-10.45V96.31     C240.9,96.2,239.46,96.1,237.85,96.02z"></path>
		</g>
		<path class="st3" d="M143.67,105.1v116.24c-1.77,0.69-3.73,0.69-5.5,0V105.11c0.98,1.13,1.89,2.32,2.75,3.56    C141.78,107.42,142.7,106.23,143.67,105.1z"></path>
		<path class="st3" d="M162.32,122.65c-0.97,0-1.91-0.51-2.41-1.42c-0.74-1.33-0.25-3,1.07-3.74c16.85-9.33,34.32-12.66,54.97-10.46    c1.51,0.16,2.6,1.51,2.44,3.03c-0.16,1.51-1.51,2.6-3.03,2.44c-19.47-2.07-35.9,1.05-51.72,9.81    C163.23,122.54,162.77,122.65,162.32,122.65z"></path>
		<path class="st3" d="M162.32,142.29c-0.97,0-1.91-0.51-2.41-1.42c-0.74-1.33-0.25-3,1.07-3.74c16.85-9.33,34.32-12.66,54.97-10.46    c1.51,0.16,2.6,1.51,2.44,3.03c-0.16,1.51-1.51,2.6-3.03,2.44c-19.47-2.07-35.9,1.05-51.72,9.81    C163.23,142.18,162.77,142.29,162.32,142.29z"></path>
		<path class="st3" d="M162.32,161.92c-0.97,0-1.91-0.51-2.41-1.42c-0.74-1.33-0.25-3,1.07-3.74c16.85-9.33,34.32-12.66,54.97-10.46    c1.51,0.16,2.6,1.51,2.44,3.03c-0.16,1.51-1.51,2.6-3.03,2.44c-19.47-2.07-35.9,1.05-51.72,9.81    C163.23,161.81,162.77,161.92,162.32,161.92z"></path>
		<path class="st3" d="M162.32,181.56c-0.97,0-1.91-0.51-2.41-1.42c-0.74-1.33-0.25-3,1.07-3.74c16.85-9.33,34.32-12.66,54.97-10.46    c1.51,0.16,2.6,1.51,2.44,3.03c-0.16,1.51-1.51,2.6-3.03,2.44c-19.47-2.07-35.9,1.05-51.72,9.81    C163.23,181.45,162.77,181.56,162.32,181.56z"></path>
		<path class="st3" d="M118.93,122.65c-0.45,0-0.91-0.11-1.33-0.34c-15.82-8.76-32.25-11.87-51.72-9.81    c-1.51,0.15-2.86-0.93-3.03-2.44c-0.16-1.51,0.93-2.86,2.44-3.03c20.65-2.19,38.11,1.13,54.97,10.46    c1.33,0.74,1.81,2.41,1.07,3.74C120.83,122.14,119.9,122.65,118.93,122.65z"></path>
		<path class="st3" d="M118.93,142.29c-0.45,0-0.91-0.11-1.33-0.34c-15.82-8.76-32.25-11.87-51.72-9.81    c-1.51,0.15-2.86-0.93-3.03-2.44c-0.16-1.51,0.93-2.86,2.44-3.03c20.65-2.19,38.11,1.13,54.97,10.46    c1.33,0.74,1.81,2.41,1.07,3.74C120.83,141.77,119.9,142.29,118.93,142.29z"></path>
		<path class="st3" d="M118.93,161.92c-0.45,0-0.91-0.11-1.33-0.34c-15.82-8.76-32.25-11.87-51.72-9.81    c-1.51,0.15-2.86-0.93-3.03-2.44c-0.16-1.51,0.93-2.86,2.44-3.03c20.65-2.19,38.11,1.13,54.97,10.46    c1.33,0.74,1.81,2.41,1.07,3.74C120.83,161.41,119.9,161.92,118.93,161.92z"></path>
		<path class="st3" d="M118.93,181.56c-0.45,0-0.91-0.11-1.33-0.34c-15.82-8.76-32.25-11.87-51.72-9.81    c-1.51,0.15-2.86-0.93-3.03-2.44c-0.16-1.51,0.93-2.86,2.44-3.03c20.65-2.19,38.11,1.13,54.97,10.46    c1.33,0.74,1.81,2.41,1.07,3.74C120.83,181.05,119.9,181.56,118.93,181.56z"></path>
		<path class="st0" d="M248.88,210.26v13.04c0,4.16-3.37,7.53-7.53,7.53h-87.64c14.49-8.75,42.29-19.32,88.41-14.45    C245.74,216.76,248.88,213.9,248.88,210.26z"></path>
		<path class="st0" d="M128.11,230.83H40.47c-4.16,0-7.53-3.37-7.53-7.53v-13.04c0,3.64,3.15,6.5,6.77,6.12    C85.83,211.51,113.63,222.08,128.11,230.83z"></path>
	</g>
</g>
</svg>
