<svg xmlns="http://www.w3.org/2000/svg" xmlns:xlink="http://www.w3.org/1999/xlink" id="Laag_1" x="0px" y="0px" viewBox="0 0 282 246" style="enable-background:new 0 0 282 246;" xml:space="preserve">
<style type="text/css">
	.st0{fill:#2F788A;}
	.st1{fill:#FF9859;}
	.st2{fill:#3DB1C4;}
	.st3{fill:#FFFFFF;}
	.st4{fill:#69D6E7;}
	.st5{fill:#EFA059;}
	.st6{fill:#F08419;}
</style>
<g>
	<g>
		<path class="st2" d="M112.45,47.46v45.99c0,1.47-1.19,2.66-2.66,2.66h-8.27c-0.95,0-1.72,0.77-1.72,1.72v7.01    c0,1.21-1.44,1.84-2.33,1.02l-10-9.29c-0.32-0.3-0.74-0.46-1.17-0.46H45.95c-1.47,0-2.66-1.19-2.66-2.66V47.46    c0-1.47,1.19-2.66,2.66-2.66h63.83C111.25,44.8,112.45,45.99,112.45,47.46z"></path>
		<path class="st0" d="M84.87,59.6c-0.12,0-0.24,0-0.35,0.01c-2.35,0.11-4.43,1.27-5.76,3.04c-0.31,0.41-0.92,0.41-1.23,0    c-1.4-1.85-3.61-3.05-6.11-3.05c-4.21,0-7.63,3.4-7.65,7.61h-0.02v0.49c0,1.72,0.34,3.39,0.98,4.94c0.86,2.1,2.27,3.97,4.12,5.39    l3.65,2.79l2.22,1.7L75,82.73l1.21,0.93l0.02,0.02l0.95,0.72c0.56,0.43,1.34,0.43,1.9,0l0.82-0.63l0.34-0.26l0.89-0.68l0.59-0.45    l5.67-4.34c2.28-1.75,3.89-4.17,4.63-6.88c0.31-1.11,0.47-2.27,0.47-3.45c0.01-0.15,0.01-0.3,0.01-0.46    C92.52,63.02,89.1,59.6,84.87,59.6z"></path>
	</g>
	<g>
		<path class="st2" d="M168.5,26.28v49.26c0,1.58,1.28,2.85,2.85,2.85h8.86c1.01,0,1.84,0.83,1.84,1.85v7.51    c0,1.3,1.54,1.97,2.5,1.09l10.72-9.95c0.34-0.32,0.79-0.5,1.26-0.5h43.2c1.58,0,2.85-1.28,2.85-2.85V26.28    c0-1.58-1.28-2.85-2.85-2.85h-68.38C169.78,23.43,168.5,24.71,168.5,26.28z"></path>
		<rect x="182.56" y="38.87" class="st0" width="45.95" height="7.29"></rect>
		<rect x="182.56" y="54.88" class="st0" width="17.59" height="7.29"></rect>
		<rect x="210.91" y="54.88" class="st0" width="17.59" height="7.29"></rect>
	</g>
	<path class="st2" d="M265,192.97h-45.93h-7.31H97.08h-0.32H72.03h-7.39H17v7.29h50.16c1.93,3.2,4.81,5.81,8.37,7.38   c2.37,1.03,4.86,1.57,7.44,1.57c4.63,0,9.06-1.73,12.47-4.85l4.46-4.08l45.65,0.04v12.26c0,5.51,4.49,9.99,9.99,9.99h34.65   c9.58,0,18.45-4.51,23.73-12.07c2.21-3.17,3.7-6.65,4.5-10.23H265V192.97z M78.47,200.97c-0.47-0.2-0.91-0.44-1.33-0.7h11.67   c-1.77,1.09-3.79,1.65-5.84,1.65C81.45,201.92,79.92,201.6,78.47,200.97z"></path>
	<g>

			<ellipse transform="matrix(0.9239 -0.3827 0.3827 0.9239 -30.7663 64.8944)" class="st5" cx="147.74" cy="109.78" rx="22.26" ry="22.26"></ellipse>
		<path class="st5" d="M208.18,182.39l-24.17-35.79c-2.08-3.08-5.55-4.92-9.26-4.92H123.1c-2.79,0-5.48,1.05-7.54,2.93l-19.31,18.84    c-0.81,0.74-2.1,0.17-2.1-0.93v-40.7c0-1.49-1.21-2.7-2.7-2.7H74.51c-1.49,0-2.7,1.21-2.7,2.7v68.92c0,4.43,2.62,8.44,6.67,10.22    c4.05,1.78,8.78,1.01,12.04-1.98l25.3-23.16c0.77-0.71,2.02-0.2,2.08,0.84l1,16.33l35.99,0.03c-1.17,0.29-2.04,1.35-2.04,2.61    v16.94c0,1.49,1.21,2.7,2.7,2.7l34.65,0c7,0,13.74-3.22,17.76-8.96C213.04,199.05,213.04,189.59,208.18,182.39z M174.42,192.93    l1.47-14.5c0.12-1.16,1.62-1.53,2.27-0.57l8.63,12.78c0.66,0.97-0.04,2.29-1.22,2.29H174.42z"></path>
	</g>
</g>
</svg>
