<?xml version="1.0" encoding="utf-8"?>
<!-- Generator: Adobe Illustrator 23.1.0, SVG Export Plug-In . SVG Version: 6.00 Build 0)  -->
<svg version="1.1" id="Laag_1" xmlns="http://www.w3.org/2000/svg" xmlns:xlink="http://www.w3.org/1999/xlink" x="0px" y="0px"
	 viewBox="0 0 60.14 59.7" style="enable-background:new 0 0 60.14 59.7;" xml:space="preserve">
<style type="text/css">
	.st0{fill:none;}
	.st1{fill:#2F788A;}
	.st2{fill:#F08419;}
</style>
<g id="Group_47" transform="translate(-9.5 -7.5)">
	<g>
		<path class="st0" d="M23.74,46.52c0.23-0.17,0.34-0.42,0.34-0.75c0-0.36-0.11-0.63-0.34-0.8c-0.23-0.17-0.57-0.26-1.02-0.26h-1.07
			v2.07h1.13C23.19,46.78,23.51,46.69,23.74,46.52z"/>
		<path class="st0" d="M23.21,47.86h-1.56v2.25h1.44c0.42,0,0.73-0.09,0.95-0.27c0.22-0.18,0.33-0.45,0.33-0.8
			c0-0.38-0.09-0.67-0.28-0.88S23.61,47.86,23.21,47.86z"/>
		<path class="st0" d="M58.67,44.71h-1.38v2.28h1.35c0.44,0,0.77-0.09,0.99-0.28c0.22-0.19,0.33-0.46,0.33-0.83
			c0-0.36-0.11-0.64-0.33-0.85S59.09,44.71,58.67,44.71z"/>
		<path class="st1" d="M24.52,47.25c0.37-0.14,0.64-0.36,0.83-0.64c0.19-0.28,0.29-0.61,0.29-0.97c0-0.71-0.26-1.25-0.77-1.61
			s-1.23-0.54-2.15-0.54h-2.64v7.82h3.01c0.91,0,1.61-0.19,2.1-0.58s0.74-0.95,0.74-1.7c0-0.43-0.12-0.81-0.35-1.14
			C25.34,47.57,24.99,47.36,24.52,47.25z M21.64,44.71h1.07c0.45,0,0.79,0.09,1.02,0.26c0.23,0.17,0.34,0.44,0.34,0.8
			c0,0.33-0.11,0.58-0.34,0.75s-0.55,0.26-0.97,0.26h-1.13V44.71z M24.04,49.84c-0.22,0.18-0.54,0.27-0.95,0.27h-1.44v-2.25h1.56
			c0.4,0,0.69,0.1,0.88,0.3s0.28,0.49,0.28,0.88C24.37,49.39,24.26,49.66,24.04,49.84z"/>
		<path class="st1" d="M32.1,48.69c0,0.52-0.14,0.91-0.42,1.16s-0.66,0.38-1.15,0.38c-0.48,0-0.86-0.13-1.14-0.38
			s-0.41-0.64-0.41-1.16V44.3c-0.53-0.12-1.05-0.26-1.57-0.42v4.82c0,0.88,0.29,1.55,0.86,2.03c0.57,0.48,1.33,0.71,2.26,0.71
			c0.94,0,1.7-0.24,2.28-0.71s0.87-1.15,0.87-2.03v-3.85c-0.53,0-1.05-0.03-1.57-0.07V48.69z"/>
		<path class="st1" d="M40.71,44.29v-0.65c-1.56,0.55-3.16,0.9-4.79,1.07h2.87l-3.72,5.79v0.82h5.72v-1.21h-3.82L40.71,44.29z"/>
		<polygon class="st1" points="47.54,44.29 47.54,43.5 41.91,43.5 41.91,44.71 45.62,44.71 41.91,50.5 41.91,51.32 47.63,51.32 
			47.63,50.11 43.8,50.11 		"/>
		<polygon class="st1" points="50.62,47.88 53.86,47.88 53.86,46.67 50.62,46.67 50.62,44.71 54.4,44.71 54.4,43.5 49.05,43.5 
			49.05,51.32 54.41,51.32 54.41,50.11 50.62,50.11 		"/>
		<path class="st1" d="M61.66,50.68c-0.06-0.24-0.09-0.47-0.09-0.68v-0.58c0-0.47-0.1-0.86-0.3-1.18c-0.2-0.32-0.54-0.55-1-0.68
			c0.41-0.18,0.72-0.41,0.93-0.7s0.32-0.64,0.32-1.04c0-0.73-0.25-1.29-0.75-1.7s-1.2-0.61-2.09-0.61h-2.95v7.82h1.57V48.2h1.49
			c0.39,0,0.69,0.11,0.9,0.33C59.9,48.74,60,49.04,60,49.43v0.55c0,0.24,0.02,0.49,0.06,0.76c0.04,0.27,0.14,0.46,0.28,0.57h1.62
			v-0.11C61.82,51.09,61.72,50.92,61.66,50.68z M59.63,46.71c-0.22,0.19-0.54,0.28-0.99,0.28h-1.35v-2.28h1.38
			c0.42,0,0.74,0.11,0.96,0.32s0.33,0.5,0.33,0.85C59.95,46.25,59.84,46.52,59.63,46.71z"/>
	</g>
	<g id="Group_41" transform="translate(24.538 13.928)">
		<g id="Group_41-2" transform="translate(26.883 17.331)">
			<path id="Path_2177-2" class="st2" d="M0.96,1.71L0.51-0.18c-0.14-0.58-0.72-0.94-1.3-0.8c0,0,0,0,0,0l0,0l0.9,4.06l0,0
				C0.72,2.94,1.1,2.33,0.96,1.71C0.96,1.71,0.96,1.71,0.96,1.71z"/>
		</g>
		<g id="Group_42" transform="translate(9.376 18.827)">
			<path id="Path_2178" class="st2" d="M-0.1,4.37C-0.55,4.3-0.86,3.86-0.78,3.41C-0.75,3.26-0.68,3.12-0.58,3l1.7-1.93
				c0.23-0.26,0.61-0.35,0.93-0.22l2.38,0.95c0.43,0.17,0.63,0.66,0.46,1.08C4.72,3.32,4.24,3.52,3.81,3.35l0,0L1.98,2.62L0.67,4.1
				C0.48,4.32,0.19,4.43-0.1,4.37z"/>
			<path id="Path_2179" class="st2" d="M7.46,2.57C7.01,2.49,6.71,2.06,6.79,1.61c0.03-0.15,0.09-0.29,0.19-0.4l1.7-1.93
				c0.23-0.26,0.61-0.35,0.93-0.22l2.38,0.95c0.43,0.17,0.63,0.66,0.46,1.08c-0.17,0.43-0.66,0.63-1.08,0.46L9.54,0.82L8.23,2.3
				C8.04,2.52,7.75,2.62,7.46,2.57z"/>
		</g>
		<g id="Group_43" transform="translate(3.31 22.624)">
			<path id="Path_2180" class="st2" d="M-0.75,0.58l0.35,1.47c0.17,0.71,0.88,1.15,1.6,0.98c0,0,0,0,0,0l0,0L0.23-1.01l0,0
				C-0.48-0.84-0.92-0.13-0.75,0.58C-0.75,0.58-0.75,0.58-0.75,0.58z"/>
		</g>
		<g id="Group_44" transform="translate(8.829 3.949)">
			<path id="Path_2181" class="st2" d="M2.08-0.95c-0.1,0.02-0.21,0.04-0.31,0.07l1.68,3.02l-0.55,0.9L1.91,3L0.25,0.01
				c-1.37,1.36-1.38,3.58-0.02,4.95S3.8,6.34,5.18,4.97S6.56,1.4,5.2,0.02C4.38-0.79,3.22-1.16,2.08-0.95L2.08-0.95z"/>
		</g>
		<g id="Group_46" transform="translate(3.36 11.312)">
			<path id="Path_2182" class="st1" d="M21.36,0.36c-0.39-0.14-0.79-0.24-1.19-0.3c-2.93-0.38-5.91-0.25-8.8,0.38L10.78-1
				C9.89-0.4,8.81-0.14,7.74-0.27L7.87,1.2c-8.43,2.13-8.66,4.44-8.66,4.44l2.34,9.83c0.85-0.02,1.78-0.09,2.77-0.19L2.18,6.29
				C2.97,5.74,4.9,4.71,9.25,3.67c3.2-0.89,6.53-1.23,9.85-1.01l1.93,8.11c0.91-0.41,1.75-0.82,2.52-1.24L21.36,0.36z"/>
			<g id="Group_45" transform="translate(2.56 11.691)">
				<path id="Path_2183" class="st1" d="M-0.45,6.13c0,0,0.25,0.63,1.84,0.91C3.62,7.28,5.87,7.14,8.04,6.6
					c0.63-0.12,1.3-0.27,2.03-0.44c1.3-0.31,2.45-0.63,3.48-0.96c6.63-2.09,8.15-4.35,8.15-4.35l-0.44-1.86
					c-3,1.71-6.2,3.04-9.52,3.98C7.69,4.24,3.45,4.82-0.79,4.69L-0.45,6.13z"/>
			</g>
		</g>
	</g>
</g>
</svg>
